<?xml version="1.0" encoding="utf-8"?>
<svg xmlns="http://www.w3.org/2000/svg" viewBox="287.105 62.565 359.576 372.784" xmlns:bx="https://boxy-svg.com" width="359.576px" height="372.784px"><defs><path id="path-0" style="fill: none;" d="M 141.119 122.272 C 182.459 192.726 226.744 215.154 262.079 245.317 C 276.893 257.964 288.701 274.025 302.398 287.723 C 305.179 297.162 304.591 300.824 301.008 304.407 C 298.227 319.029 256.58 328.128 250.261 330.128 C 210.436 342.731 170.052 353.065 129.997 364.191 C 98.62 364.191 89.795 335.734 82.03 317.615 C 76.305 238.526 55.218 169.885 71.602 112.54 C 78.586 100.674 97.289 102.808 105.666 102.808 C 140.834 102.808 161.763 112.251 193.257 125.748 C 234.471 155.616 262.479 171.205 282.238 192.484 C 297.975 209.432 305.422 233.29 315.607 253.659 L 321.863 264.087 C 327.612 274.148 335.676 287.431 345.499 293.979"/><linearGradient bx:pinned="true" id="color-1"><stop style="stop-color: #0f2027;" offset="0"/><stop style="stop-color: #203a43;" offset="0.5"/><stop style="stop-color: #2c5364;" offset="1"/></linearGradient><style bx:fonts="Space Grotesk" bx:pinned="true">@import url(https://fonts.googleapis.com/css2?family=Space+Grotesk%3Aital%2Cwght%400%2C300..700&amp;display=swap);</style><bx:export><bx:file format="svg"/></bx:export></defs><text style="fill: url(&quot;#color-1&quot;); font-family: &quot;Space Grotesk&quot;; font-size: 150px; white-space: pre;" x="335.071" y="304.269">t.m.</text></svg>